<?xml version="1.0" standalone="no"?>
<!DOCTYPE svg PUBLIC "-//W3C//DTD SVG 20010904//EN"
 "http://www.w3.org/TR/2001/REC-SVG-20010904/DTD/svg10.dtd">
<svg version="1.0" xmlns="http://www.w3.org/2000/svg"
 width="2841.000000pt" height="2841.000000pt" viewBox="0 0 2841.000000 2841.000000"
 preserveAspectRatio="xMidYMid meet">
<metadata>
Created by potrace 1.11, written by Peter Selinger 2001-2013
</metadata>
<g transform="translate(0.000000,2841.000000) scale(0.100000,-0.100000)"
fill="#000000" stroke="none">
<path d="M6780 18650 c-13 -8 -13 -10 2 -10 9 0 20 5 23 10 8 13 -5 13 -25 0z"/>
<path d="M6725 18630 c-3 -5 -2 -10 4 -10 5 0 13 5 16 10 3 6 2 10 -4 10 -5 0
-13 -4 -16 -10z"/>
<path d="M6657 18615 c-12 -6 -28 -10 -35 -7 -6 2 -12 0 -12 -5 0 -5 -10 -10
-22 -10 -19 -1 -71 -14 -113 -27 -5 -2 -29 -7 -52 -11 -24 -4 -40 -11 -38 -15
3 -5 -3 -6 -14 -3 -10 3 -22 0 -25 -6 -4 -5 -13 -8 -21 -4 -8 3 -15 0 -15 -7
0 -6 -4 -8 -10 -5 -11 7 -88 -13 -108 -28 -7 -5 -15 -7 -18 -4 -3 3 -17 2 -31
-4 -13 -5 -38 -11 -56 -14 -17 -4 -34 -9 -37 -13 -3 -4 -11 -8 -18 -10 -7 -1
-20 -4 -30 -6 -29 -5 -76 -17 -92 -23 -8 -3 -24 -8 -34 -10 -11 -2 -25 -8 -31
-13 -7 -5 -15 -7 -18 -4 -3 3 -12 2 -19 -2 -15 -10 -20 -11 -49 -13 -11 0 -17
-5 -14 -11 3 -6 -1 -7 -10 -4 -8 4 -23 0 -32 -7 -9 -8 -17 -12 -17 -10 -2 7
-76 -10 -76 -17 0 -4 -14 -8 -32 -8 -18 -1 -34 -6 -36 -13 -2 -6 -8 -9 -13 -6
-5 3 -30 -1 -56 -10 -27 -9 -59 -19 -73 -22 -13 -2 -30 -9 -37 -15 -7 -6 -13
-7 -13 -3 0 4 -7 2 -15 -5 -8 -7 -15 -10 -15 -7 0 4 -19 -1 -42 -9 -24 -9 -47
-17 -53 -18 -11 -2 -212 -65 -235 -74 -8 -3 -21 -6 -28 -8 -8 -1 -21 -6 -30
-10 -9 -4 -23 -8 -30 -10 -8 -1 -21 -6 -30 -10 -9 -4 -20 -8 -24 -9 -5 -2 -10
-4 -13 -5 -8 -4 -24 -7 -41 -9 -8 0 -13 -5 -10 -10 3 -4 -6 -6 -19 -3 -14 2
-25 0 -25 -7 0 -5 -7 -8 -15 -5 -8 4 -15 1 -15 -6 0 -6 -4 -9 -9 -6 -5 3 -23
-1 -40 -10 -18 -9 -40 -17 -49 -19 -9 -2 -18 -4 -19 -5 -2 -2 -7 -4 -13 -5 -5
-1 -12 -4 -15 -5 -3 -1 -9 -4 -15 -5 -5 -1 -11 -3 -12 -5 -2 -1 -12 -3 -22 -5
-10 -2 -22 -7 -25 -12 -3 -4 -10 -8 -16 -9 -25 -1 -104 -27 -101 -33 2 -3 -9
-7 -26 -7 -17 -1 -34 -7 -39 -15 -5 -8 -9 -11 -9 -8 0 4 -44 -9 -97 -28 -54
-19 -115 -40 -135 -45 -21 -6 -38 -14 -38 -18 0 -3 -6 -7 -12 -7 -20 -1 -113
-37 -116 -46 -2 -4 -7 -5 -12 -2 -4 3 -21 -2 -36 -10 -16 -8 -37 -15 -46 -15
-9 0 -20 -4 -23 -10 -3 -5 -15 -10 -25 -10 -10 0 -25 -6 -32 -12 -7 -7 -19
-13 -25 -14 -29 -2 -34 -4 -29 -13 3 -5 0 -8 -7 -8 -24 1 -77 -16 -77 -25 0
-5 -5 -6 -10 -3 -5 3 -10 1 -10 -5 0 -6 -4 -9 -9 -5 -9 5 -59 -13 -71 -25 -3
-3 -14 -7 -25 -8 -11 -2 -22 -7 -25 -10 -3 -4 -12 -8 -20 -10 -8 -2 -30 -9
-47 -17 -18 -8 -49 -22 -68 -30 -19 -8 -52 -23 -72 -32 -21 -10 -40 -18 -43
-18 -30 -5 -60 -17 -60 -26 0 -6 -4 -8 -9 -4 -5 3 -16 -1 -24 -9 -8 -8 -17
-13 -20 -10 -6 6 -57 -17 -57 -26 0 -4 -6 -7 -14 -7 -7 0 -33 -9 -57 -20 -24
-11 -59 -26 -76 -34 -18 -8 -33 -18 -33 -22 0 -5 -4 -5 -10 -2 -5 3 -10 1 -10
-4 0 -6 -3 -10 -8 -8 -13 4 -102 -37 -102 -47 0 -5 -3 -6 -6 -3 -4 4 -19 0
-33 -8 -14 -7 -50 -24 -78 -36 -29 -12 -53 -26 -53 -31 0 -4 -3 -7 -7 -7 -19
3 -34 -2 -29 -9 2 -4 -5 -9 -17 -9 -12 -1 -23 -7 -25 -13 -2 -5 -7 -8 -12 -5
-5 3 -16 -3 -26 -12 -10 -10 -19 -16 -21 -14 -9 8 -62 -22 -56 -32 4 -6 0 -8
-10 -4 -9 3 -23 -1 -32 -9 -8 -9 -15 -13 -15 -9 0 3 -21 -6 -47 -21 -27 -15
-73 -40 -103 -56 -30 -16 -58 -34 -61 -40 -3 -5 -10 -10 -15 -10 -24 -2 -44
-11 -44 -20 0 -5 -4 -7 -10 -3 -5 3 -18 -3 -30 -15 -11 -11 -26 -20 -33 -20
-7 0 -24 -10 -37 -22 -14 -13 -25 -21 -27 -18 -2 5 -111 -58 -123 -70 -3 -3
-12 -6 -20 -8 -8 -2 -16 -8 -18 -13 -2 -5 -10 -9 -17 -9 -8 0 -23 -10 -35 -22
-11 -12 -20 -18 -20 -12 0 5 -4 5 -8 -1 -4 -6 -24 -19 -44 -30 -20 -10 -35
-23 -32 -27 3 -4 -3 -8 -13 -8 -17 0 -162 -94 -175 -114 -4 -6 -8 -8 -8 -3 0
4 -11 0 -25 -9 -14 -9 -22 -21 -18 -27 4 -6 0 -8 -10 -4 -10 3 -17 2 -17 -3 0
-5 -9 -12 -20 -15 -11 -4 -18 -10 -16 -14 3 -4 -8 -12 -24 -19 -15 -7 -40 -24
-54 -37 -15 -14 -30 -26 -34 -27 -4 -2 -6 -7 -4 -11 1 -5 -2 -5 -8 -2 -6 4
-19 -2 -28 -12 -9 -11 -25 -22 -34 -26 -10 -3 -18 -11 -18 -17 0 -5 -6 -10
-12 -10 -7 0 -30 -16 -52 -36 -21 -19 -49 -42 -62 -51 -13 -8 -21 -19 -18 -24
3 -5 2 -8 -3 -7 -5 2 -15 -2 -23 -9 -53 -44 -69 -61 -62 -68 4 -5 1 -5 -6 -1
-8 5 -37 -17 -80 -61 -37 -37 -70 -67 -74 -65 -5 1 -8 -2 -8 -7 0 -6 -39 -50
-87 -99 -119 -121 -189 -202 -176 -202 4 0 -3 -7 -15 -16 -12 -8 -22 -21 -22
-27 0 -7 -9 -18 -20 -25 -12 -7 -18 -17 -15 -21 2 -5 -2 -12 -11 -15 -8 -3
-13 -10 -10 -15 3 -5 -1 -12 -10 -15 -8 -3 -12 -10 -9 -16 3 -5 2 -10 -3 -10
-11 0 -68 -89 -64 -101 1 -5 -3 -9 -9 -9 -5 0 -7 -4 -4 -10 3 -5 1 -10 -5 -10
-6 0 -9 -4 -6 -9 3 -5 -1 -12 -10 -15 -8 -3 -12 -10 -9 -16 3 -5 2 -10 -3 -10
-10 0 -47 -85 -47 -108 0 -7 -6 -16 -13 -20 -12 -8 -65 -152 -55 -152 3 0 0
-7 -7 -15 -7 -8 -10 -15 -7 -15 3 0 -3 -27 -14 -59 -10 -33 -16 -69 -14 -80 2
-12 0 -21 -6 -21 -10 0 -13 -373 -2 -384 4 -3 8 -14 9 -24 9 -67 16 -97 24
-107 4 -5 9 -13 9 -17 1 -5 1 -9 2 -10 0 -2 3 -14 5 -27 2 -14 11 -32 19 -41
8 -9 12 -20 8 -23 -7 -8 16 -58 32 -69 5 -4 6 -8 1 -8 -5 0 -3 -7 4 -15 7 -8
9 -15 6 -15 -4 0 5 -22 20 -50 15 -27 31 -47 35 -44 5 3 6 -1 3 -9 -3 -8 2
-21 10 -30 9 -9 16 -20 16 -26 0 -6 5 -11 10 -11 6 0 10 -7 10 -15 0 -9 7 -18
15 -21 8 -4 13 -9 11 -13 -6 -9 39 -62 47 -55 3 3 4 -1 3 -9 -2 -22 142 -189
156 -181 5 3 7 0 6 -8 -2 -7 3 -12 10 -10 8 1 11 -2 8 -6 -7 -12 28 -44 39
-35 4 5 5 3 2 -3 -6 -10 78 -96 162 -164 23 -19 52 -43 63 -52 11 -10 25 -15
31 -11 5 3 7 1 4 -4 -7 -12 16 -36 26 -27 3 3 10 -4 17 -15 6 -12 17 -21 24
-21 8 0 17 -7 20 -16 4 -9 9 -14 12 -11 4 3 15 -4 26 -16 11 -12 16 -15 12 -7
-4 8 8 0 26 -18 18 -18 35 -30 37 -28 3 2 15 -5 28 -16 13 -11 26 -20 29 -19
3 0 17 -11 32 -24 15 -14 30 -22 35 -19 5 3 9 0 9 -6 0 -7 7 -9 16 -6 8 3 12
2 9 -4 -3 -6 2 -13 12 -17 10 -4 24 -13 31 -20 8 -7 17 -11 22 -8 4 3 11 -2
14 -11 3 -8 10 -12 16 -9 5 3 10 1 10 -4 0 -6 9 -11 21 -11 11 0 17 -4 14 -10
-5 -9 10 -15 18 -7 1 1 13 -8 27 -21 13 -12 30 -20 38 -17 7 2 10 1 7 -4 -5
-9 32 -27 48 -23 4 1 7 -2 7 -7 0 -11 100 -64 100 -53 0 4 4 3 8 -3 11 -15 72
-47 72 -38 0 4 4 3 8 -2 4 -6 21 -17 37 -25 17 -8 35 -19 41 -25 5 -5 16 -68
23 -140 18 -190 65 -444 99 -535 7 -19 7 -19 16 -60 5 -19 11 -39 14 -45 4 -5
7 -14 8 -20 1 -5 8 -23 15 -40 6 -16 13 -36 15 -44 7 -33 81 -202 130 -296 45
-86 78 -141 88 -147 6 -4 7 -8 3 -8 -12 0 152 -238 171 -250 10 -5 13 -10 9
-10 -9 0 43 -65 118 -150 51 -58 219 -223 279 -275 25 -22 56 -50 68 -62 12
-13 26 -23 30 -23 5 0 20 -12 33 -26 14 -15 25 -25 25 -22 0 3 17 -9 37 -28
20 -19 38 -32 40 -30 3 2 15 -6 28 -18 13 -11 29 -26 37 -32 29 -23 247 -164
253 -164 4 0 18 -9 32 -20 14 -11 29 -17 34 -14 5 3 9 1 9 -5 0 -12 295 -162
304 -154 3 3 6 1 6 -5 0 -7 3 -11 8 -10 4 1 22 -6 40 -15 18 -10 38 -15 44
-11 6 4 8 3 5 -2 -4 -8 106 -57 153 -69 3 -1 12 -5 20 -8 77 -32 422 -134 510
-151 14 -2 81 -16 150 -29 69 -14 148 -28 175 -32 28 -3 59 -8 70 -10 11 -2
49 -7 84 -10 35 -3 66 -7 70 -9 4 -3 38 -5 76 -7 39 -1 75 -6 81 -11 16 -12
855 -3 964 10 124 15 181 22 215 27 17 3 48 7 70 10 22 4 76 13 120 21 44 9
94 18 110 20 93 16 397 98 515 139 94 33 100 35 103 33 1 -1 13 5 27 12 14 8
27 15 30 15 14 3 58 20 108 43 32 14 63 26 70 28 16 3 315 154 322 163 3 3 26
17 53 30 26 13 52 30 58 38 6 7 15 13 20 13 14 0 91 52 112 74 9 10 17 16 17
12 0 -9 142 88 180 123 15 15 36 31 46 38 11 6 18 16 16 23 -1 6 2 9 8 5 5 -3
21 5 35 19 14 15 28 26 31 26 19 0 284 262 277 274 -3 6 -2 8 2 3 9 -7 45 20
45 35 0 4 15 23 33 41 40 40 108 123 124 151 7 11 12 16 13 10 0 -7 10 -12 23
-12 30 1 184 -11 227 -17 40 -5 184 -16 280 -21 36 -1 97 -6 135 -9 101 -8
206 -15 315 -20 52 -2 97 -5 100 -6 3 -1 32 -3 65 -5 120 -5 158 -15 185 -47
47 -55 194 -207 202 -207 4 0 29 -21 56 -47 26 -27 63 -59 80 -73 18 -14 40
-33 49 -42 10 -10 22 -18 27 -18 5 0 16 -8 25 -18 30 -32 261 -198 261 -187 0
3 8 -1 17 -11 10 -9 40 -31 68 -48 28 -17 59 -36 70 -43 80 -49 130 -76 142
-76 7 0 13 -4 13 -8 0 -10 208 -112 227 -112 7 0 13 -3 13 -7 0 -6 138 -69
165 -75 10 -2 21 -6 99 -39 21 -9 42 -14 46 -11 5 3 10 1 12 -3 3 -8 153 -59
268 -92 25 -7 63 -19 85 -26 22 -7 58 -15 80 -19 22 -4 54 -11 71 -16 17 -5
44 -12 60 -14 16 -2 58 -11 94 -18 130 -29 474 -77 546 -77 24 0 46 -4 49 -10
8 -12 921 -14 929 -2 3 5 43 12 88 15 81 7 123 12 183 23 17 3 50 8 75 11 24
2 78 11 120 19 41 8 90 17 109 20 19 3 78 17 130 31 53 13 107 26 121 29 22 4
146 39 178 49 7 3 13 4 15 4 1 -1 20 6 42 14 22 8 49 18 60 23 11 4 28 9 38
10 9 2 43 15 75 27 87 36 96 40 110 43 6 1 31 11 55 22 23 11 57 25 75 32 17
7 32 17 32 23 0 6 3 7 7 4 3 -4 12 -2 20 4 7 6 13 9 13 5 0 -10 353 173 366
190 6 8 16 14 21 14 18 0 103 51 103 61 0 6 4 8 8 5 5 -3 18 2 28 12 11 9 35
25 54 36 19 10 41 26 48 34 6 9 12 12 12 8 0 -7 64 36 80 53 3 4 19 14 35 23
l30 17 3 230 c2 196 5 231 17 232 14 1 22 3 43 9 4 1 50 2 102 2 52 0 99 3
104 6 6 3 48 7 95 8 48 1 122 5 166 8 68 4 168 10 348 19 l37 2 1 -45 c0 -25
0 -294 0 -598 l0 -552 1137 2 1137 3 0 688 c0 378 2 687 5 688 3 0 14 3 25 5
11 3 43 7 70 9 28 2 73 6 100 9 28 2 82 7 120 11 63 5 110 12 110 15 0 0 25 2
55 4 52 4 130 12 195 21 17 3 59 8 95 11 36 4 72 8 80 10 8 1 34 3 58 3 24 1
41 4 39 9 -3 4 16 8 41 8 26 1 70 4 97 7 138 16 162 19 183 19 12 0 22 3 22 7
0 3 19 6 43 7 47 1 165 13 185 19 6 3 12 0 12 -4 0 -9 -33 -40 -101 -93 -19
-15 -85 -68 -146 -117 -62 -49 -119 -95 -127 -103 -8 -7 -47 -37 -85 -67 -39
-30 -71 -58 -71 -63 0 -4 -5 -8 -10 -8 -13 0 -150 -112 -150 -123 0 -18 273
-276 317 -301 10 -5 20 -12 23 -15 7 -9 118 -91 165 -123 21 -15 43 -24 49
-21 5 3 6 2 3 -4 -8 -13 184 -127 358 -212 96 -47 136 -64 144 -61 2 1 7 -3
10 -8 3 -5 35 -22 71 -37 36 -14 79 -32 95 -40 141 -64 582 -199 749 -229 14
-3 34 -7 44 -10 9 -3 33 -8 52 -11 19 -3 98 -16 175 -29 77 -13 196 -29 265
-36 69 -6 133 -16 142 -21 22 -11 985 -12 992 0 3 4 54 11 113 15 59 4 137 11
173 17 36 5 87 12 114 15 95 9 354 59 491 94 44 12 89 23 99 25 101 23 435
144 526 190 14 7 49 23 79 36 30 13 59 29 65 34 6 6 28 18 49 28 71 32 236
141 230 150 -3 6 -2 7 4 4 12 -8 79 40 76 54 -2 5 4 9 13 9 37 0 269 220 370
351 87 113 169 253 158 271 -4 6 -3 8 3 5 14 -9 90 165 108 248 2 11 11 45 20
75 26 92 46 258 47 395 2 119 -9 291 -18 306 -2 4 -6 24 -10 45 -13 89 -69
265 -110 346 -18 35 -20 46 -9 42 8 -4 15 -2 15 4 0 6 8 9 18 8 9 -2 31 1 47
6 17 5 37 11 45 13 8 2 17 4 20 5 3 1 10 3 15 4 26 4 86 20 147 38 37 11 75
21 85 23 10 2 18 4 18 5 0 1 14 4 30 6 17 3 37 7 45 11 8 3 24 8 35 10 11 2
27 6 35 10 8 3 21 5 29 4 7 -1 11 1 8 6 -3 4 7 9 21 9 41 2 96 15 108 25 6 5
14 6 17 2 4 -3 7 -1 7 5 0 6 7 9 15 6 8 -3 20 -2 27 2 7 5 16 9 21 10 4 1 8 2
10 4 1 1 11 3 22 5 11 2 38 9 60 15 22 6 46 12 53 12 6 1 12 4 12 8 0 3 8 6
18 7 9 1 24 3 32 6 8 2 32 7 52 11 21 5 36 11 34 15 -2 3 6 7 17 7 35 3 91 15
108 25 9 4 27 10 41 13 35 6 142 39 148 46 3 3 19 7 35 9 17 1 32 6 35 10 3 3
16 8 30 10 14 1 28 8 32 14 4 6 10 9 13 5 4 -4 26 0 48 9 48 17 48 17 100 28
20 4 40 11 43 16 3 5 10 6 16 3 7 -4 8 -2 4 5 -4 6 -13 8 -19 4 -7 -4 -16 -8
-22 -8 -30 -3 -92 -19 -103 -28 -7 -5 -15 -7 -18 -4 -3 3 -20 1 -37 -5 -18 -5
-45 -12 -62 -15 -16 -3 -38 -9 -47 -14 -10 -5 -18 -7 -18 -5 0 3 -12 0 -27 -6
-16 -6 -38 -10 -51 -9 -13 0 -21 -3 -18 -8 3 -4 -6 -6 -19 -3 -14 2 -25 0 -25
-6 0 -5 -10 -10 -22 -10 -13 0 -36 -3 -53 -7 -16 -4 -35 -8 -42 -9 -7 -1 -15
-5 -19 -8 -3 -4 -12 -4 -19 -2 -7 3 -16 1 -19 -5 -4 -6 -14 -7 -23 -4 -10 4
-14 2 -10 -4 5 -7 0 -9 -13 -6 -11 3 -28 2 -37 -2 -10 -5 -24 -7 -30 -6 -7 1
-13 -2 -13 -6 0 -4 -10 -8 -22 -9 -40 -2 -103 -15 -112 -24 -5 -5 -15 -6 -24
-3 -10 4 -13 2 -8 -5 4 -7 2 -10 -6 -7 -7 3 -44 -2 -83 -10 -38 -9 -86 -19
-105 -22 -19 -3 -38 -10 -41 -15 -4 -6 -12 -7 -18 -4 -6 4 -16 4 -23 0 -7 -4
-21 -9 -32 -10 -12 -1 -31 -4 -43 -7 -11 -3 -42 -9 -67 -12 -28 -5 -43 -11
-39 -18 3 -6 1 -7 -6 -3 -10 7 -103 -8 -141 -22 -8 -3 -21 -4 -29 -3 -7 1 -10
-2 -7 -7 3 -5 -5 -7 -17 -5 -12 2 -36 -1 -52 -7 -17 -7 -43 -13 -60 -15 -40
-2 -106 -14 -125 -22 -8 -3 -24 -7 -35 -8 -11 -1 -36 -5 -55 -8 -19 -4 -38 -7
-42 -8 -4 0 -22 -5 -40 -10 -44 -13 -54 -15 -115 -24 -29 -4 -53 -10 -53 -13
0 -4 -15 -8 -32 -8 -33 -1 -43 -3 -175 -30 -39 -7 -89 -16 -110 -19 -21 -3
-45 -9 -53 -12 -8 -3 -23 -5 -34 -4 -10 2 -16 -1 -13 -6 3 -4 -17 -8 -43 -9
-27 -1 -57 -5 -67 -9 -10 -4 -27 -9 -38 -10 -24 -3 -88 -13 -135 -22 -19 -3
-42 -7 -50 -9 -8 -1 -35 -6 -60 -10 -25 -4 -49 -8 -55 -10 -38 -9 -83 -16 -97
-16 -10 0 -18 -3 -18 -8 0 -5 -7 -7 -15 -4 -8 3 -37 1 -64 -6 -27 -6 -60 -13
-73 -15 -41 -5 -102 -16 -133 -22 -16 -3 -41 -8 -55 -10 -14 -2 -36 -5 -50 -8
-14 -2 -45 -6 -70 -9 -25 -4 -56 -9 -68 -12 -13 -2 -43 -7 -65 -10 -23 -3 -49
-7 -57 -10 -8 -3 -33 -8 -55 -10 -22 -3 -78 -12 -125 -20 -47 -8 -103 -16
-125 -19 -22 -3 -56 -8 -75 -11 -19 -3 -48 -8 -65 -10 -16 -3 -46 -7 -65 -11
-19 -3 -43 -5 -54 -4 -10 2 -16 -1 -13 -6 3 -4 -16 -9 -42 -10 -41 -1 -96 -9
-96 -13 0 -1 -13 -3 -30 -5 -88 -9 -133 -15 -155 -20 -24 -5 -46 -8 -142 -19
-26 -3 -78 -11 -115 -17 -37 -6 -78 -11 -90 -11 -13 0 -23 -3 -23 -7 0 -3 -17
-6 -37 -6 -40 -1 -157 -13 -183 -20 -16 -4 -69 -12 -135 -20 -98 -11 -223 -26
-250 -31 -50 -7 -97 -13 -155 -19 -30 -3 -66 -8 -80 -11 -14 -4 -41 -8 -60
-10 -59 -6 -143 -15 -175 -20 -35 -4 -94 -11 -180 -18 -33 -3 -78 -8 -100 -11
-22 -4 -56 -8 -75 -10 -19 -2 -59 -7 -88 -10 -29 -3 -76 -8 -105 -11 -29 -2
-68 -7 -87 -11 -19 -3 -51 -7 -70 -9 -120 -9 -178 -14 -200 -18 -14 -3 -54 -8
-90 -11 -36 -3 -81 -7 -100 -10 -19 -2 -54 -5 -78 -6 -24 -1 -45 -5 -47 -9 -2
-4 -26 -6 -52 -5 -26 2 -51 1 -55 -2 -6 -3 -107 -11 -205 -16 -7 0 -13 -3 -13
-6 0 -3 -24 -7 -53 -7 -28 -1 -81 -4 -117 -8 -36 -3 -90 -8 -120 -10 -30 -3
-80 -7 -110 -10 -66 -6 -145 -12 -265 -20 -49 -3 -112 -8 -140 -11 -27 -3 -79
-8 -115 -10 -36 -3 -87 -8 -115 -11 -27 -3 -77 -7 -110 -9 -33 -1 -60 -3 -60
-4 0 -1 -36 -3 -80 -5 -195 -9 -323 -18 -355 -25 -19 -4 -56 -6 -82 -4 -27 1
-48 -1 -48 -5 0 -4 -37 -8 -83 -9 -92 -1 -177 -6 -552 -28 -148 -8 -239 -12
-455 -19 -107 -3 -211 -9 -230 -12 -19 -4 -75 -8 -125 -9 -85 -3 -295 -9 -570
-19 -387 -13 -483 -16 -702 -17 -133 -1 -241 -5 -239 -8 2 -3 -463 -6 -1034
-6 -571 0 -1036 3 -1034 6 2 3 -83 7 -189 8 -195 2 -459 8 -712 18 -77 3 -200
6 -272 7 -73 0 -133 3 -133 6 0 3 -42 7 -92 8 -51 1 -127 4 -168 7 -41 3 -129
8 -195 11 -243 11 -451 22 -540 29 -33 3 -98 7 -145 10 -47 3 -116 8 -155 11
-38 2 -106 7 -150 10 -44 3 -109 8 -145 10 -36 3 -92 7 -125 8 -34 1 -65 5
-70 8 -6 3 -37 6 -70 8 -105 5 -129 7 -165 13 -19 4 -78 9 -130 11 -52 3 -102
7 -110 10 -8 2 -58 8 -110 12 -137 9 -159 11 -215 18 -80 10 -147 17 -195 20
-25 2 -61 6 -80 10 -34 6 -129 15 -222 21 -25 2 -50 5 -55 8 -9 6 -33 8 -120
11 -28 0 -49 4 -46 8 2 5 -6 8 -19 8 -25 -1 -130 8 -138 11 -3 1 -18 4 -35 5
-16 2 -55 6 -85 10 -30 3 -71 7 -90 7 -19 1 -37 5 -40 8 -5 6 -107 19 -175 23
-17 1 -35 5 -40 8 -6 3 -39 9 -75 12 -36 4 -72 8 -80 10 -39 8 -109 17 -150
21 -25 1 -52 5 -60 9 -18 6 -113 19 -157 20 -18 1 -33 4 -33 7 0 7 -29 11 -97
12 -23 1 -39 5 -37 9 2 4 -4 7 -13 6 -18 0 -47 5 -118 18 -22 5 -57 8 -77 9
-21 0 -38 3 -38 7 0 4 -10 8 -22 7 -13 0 -61 7 -108 16 -47 9 -102 17 -122 18
-21 1 -38 5 -38 9 0 4 -10 7 -22 7 -13 -1 -32 1 -43 4 -76 20 -180 37 -191 33
-8 -3 -14 -2 -14 3 0 5 -10 8 -22 7 -13 -1 -25 1 -28 5 -3 4 -27 10 -55 13
-27 4 -61 9 -75 12 -14 2 -34 6 -45 8 -11 2 -27 6 -35 9 -8 4 -31 8 -50 10
-19 3 -42 7 -50 10 -16 6 -84 20 -110 23 -8 1 -17 3 -20 4 -28 10 -235 48
-241 44 -4 -2 -9 0 -11 5 -1 5 -19 10 -38 12 -19 2 -39 6 -45 10 -9 5 -35 12
-105 25 -17 3 -86 20 -143 35 -20 5 -42 7 -47 4 -6 -3 -10 -1 -10 5 0 7 -6 10
-14 7 -8 -3 -17 -3 -20 1 -4 3 -12 7 -19 8 -7 2 -21 5 -32 8 -82 19 -105 23
-105 19 0 -3 -7 0 -15 7 -8 6 -19 9 -25 5 -5 -3 -10 -1 -10 5 0 7 -6 10 -14 7
-7 -3 -17 -2 -22 3 -5 5 -25 10 -44 12 -19 2 -37 6 -40 10 -3 4 -17 9 -30 11
-14 2 -32 6 -40 9 -46 17 -110 29 -121 23 -7 -5 -10 -4 -5 3 4 7 -11 13 -41
18 -27 3 -53 10 -58 15 -6 4 -22 10 -35 12 -14 2 -32 6 -40 9 -8 3 -49 16 -90
28 -41 12 -87 26 -102 32 -15 5 -32 7 -37 3 -6 -3 -11 -1 -11 6 0 7 -3 9 -7 6
-3 -4 -12 -2 -19 4 -8 6 -21 9 -29 5 -8 -3 -15 -1 -15 4 0 6 -3 9 -7 8 -5 0
-15 1 -23 5 -50 19 -107 34 -123 31 -9 -1 -15 1 -12 6 4 6 -66 30 -100 34 -5
1 -12 4 -15 8 -3 4 -15 9 -25 11 -11 2 -28 7 -37 12 -10 4 -29 8 -42 9 -13 0
-22 5 -18 10 3 5 -2 7 -11 3 -10 -4 -17 -2 -17 4 0 7 -9 9 -21 6 -12 -3 -18
-3 -15 0 6 7 -114 52 -146 55 -10 1 -18 6 -18 10 0 4 -6 8 -12 8 -12 0 -149
51 -193 72 -12 5 -27 10 -35 12 -8 2 -33 11 -55 21 -22 9 -50 17 -62 17 -13 0
-20 4 -18 8 5 8 -42 25 -57 22 -5 -1 -8 3 -8 9 0 5 -4 7 -10 4 -5 -3 -10 -2
-10 2 0 5 -17 15 -37 22 -36 13 -67 26 -168 71 -24 11 -50 21 -57 22 -7 2 -15
5 -18 8 -13 13 -63 30 -72 24 -6 -4 -8 -2 -4 4 6 10 -30 28 -46 24 -5 -1 -8 2
-8 7 0 5 -15 14 -32 21 -18 6 -45 18 -59 26 -14 7 -29 11 -33 7 -3 -3 -6 -1
-6 5 0 7 -5 12 -11 12 -6 0 -17 7 -26 15 -8 8 -19 13 -24 10 -5 -4 -9 -2 -9 2
0 5 -33 24 -72 43 -40 18 -75 36 -78 40 -11 15 -51 31 -62 24 -6 -4 -8 -3 -5
3 4 6 -10 19 -31 29 -20 10 -43 25 -50 32 -8 7 -18 10 -23 7 -5 -4 -9 -1 -9 4
0 6 -7 11 -15 11 -8 0 -15 5 -15 11 0 6 -7 9 -15 5 -8 -3 -14 -2 -12 2 1 4 -2
9 -8 11 -5 3 -19 13 -29 23 -10 9 -22 15 -26 13 -5 -3 -11 2 -14 11 -3 8 -10
13 -15 10 -5 -3 -12 1 -15 10 -3 8 -10 13 -15 9 -6 -3 -13 0 -18 8 -4 7 -36
30 -70 52 -35 22 -63 43 -63 48 0 4 -6 7 -14 7 -8 0 -17 7 -20 16 -4 9 -9 14
-13 10 -3 -3 -12 3 -20 14 -8 11 -20 20 -27 20 -8 0 -17 7 -20 16 -3 8 -10 12
-16 9 -5 -3 -10 -1 -10 5 0 6 -5 8 -12 4 -7 -4 -8 -3 -4 4 7 12 -50 59 -66 54
-5 -1 -7 2 -4 7 3 5 -7 17 -22 27 -15 10 -42 34 -60 53 -19 20 -30 30 -26 22
5 -9 3 -12 -5 -7 -6 4 -9 11 -7 15 7 11 -40 51 -49 43 -4 -4 -5 -2 -3 3 4 13
-46 65 -62 65 -6 0 -9 4 -6 8 7 11 -30 42 -40 34 -4 -4 -4 -2 -1 4 6 11 -7 29
-73 102 -11 12 -17 22 -13 22 4 1 -2 9 -14 19 -12 10 -19 21 -16 25 4 3 1 6
-5 6 -7 0 -12 7 -12 15 0 9 -7 18 -15 21 -8 4 -13 9 -10 13 2 4 -6 18 -18 32
-12 14 -23 31 -25 39 -2 8 -9 22 -17 30 -7 8 -25 42 -40 75 -15 33 -31 68 -36
77 -5 10 -9 25 -9 33 0 8 -4 15 -8 15 -4 0 -8 8 -9 19 -1 10 -9 36 -18 57 -10
21 -18 50 -20 64 -1 14 -8 50 -15 80 -7 30 -12 72 -12 93 1 20 -2 37 -6 37 -9
0 -6 148 4 215 4 28 8 67 8 88 1 20 5 37 10 37 5 0 6 3 3 6 -3 4 -2 15 3 24 5
10 11 32 12 49 1 17 6 31 11 31 5 0 7 11 5 25 -3 13 -2 22 3 20 4 -3 10 8 14
24 3 17 15 49 26 72 11 22 18 47 15 55 -3 8 -2 13 3 10 6 -4 39 56 45 84 1 3
12 20 25 39 14 19 18 31 10 27 -7 -4 -5 0 5 8 11 9 17 16 13 16 -4 0 1 10 12
22 11 11 18 24 16 28 -3 5 2 11 11 14 8 3 13 10 10 15 -3 5 1 12 10 15 8 3 12
10 9 16 -3 5 -2 10 2 10 10 0 83 106 83 121 0 5 5 7 10 4 9 -6 14 8 11 28 -1
5 3 6 8 3 5 -3 14 1 21 9 7 8 10 15 7 15 -4 0 7 14 24 31 16 16 26 35 23 41
-4 6 -3 8 3 5 5 -3 33 19 62 49 29 30 49 54 45 54 -4 0 6 12 24 26 17 15 29
30 26 35 -3 5 2 9 11 9 8 0 18 7 21 15 4 8 11 15 17 15 9 0 47 34 163 148 24
23 44 40 44 36 0 -4 10 4 23 18 12 13 31 27 40 31 10 4 15 12 12 17 -4 6 -1 9
7 8 7 -2 12 2 11 9 -2 7 3 10 11 7 7 -3 23 7 35 22 11 15 21 24 21 20 0 -4 6
-1 14 6 7 7 24 20 36 28 13 8 32 23 42 33 10 9 20 17 23 17 4 0 77 53 115 84
9 7 24 15 33 19 9 3 17 11 17 16 0 5 10 11 23 15 12 3 33 16 47 28 13 13 28
23 32 23 4 0 17 8 28 18 11 9 25 17 31 17 5 0 7 5 3 12 -4 6 -3 9 2 5 12 -7
86 37 77 46 -3 4 1 7 11 7 16 0 60 24 83 46 6 6 25 17 42 24 17 7 31 17 31 22
0 5 4 7 8 4 5 -3 19 4 30 15 12 11 22 16 22 12 0 -4 7 1 15 11 8 11 15 17 15
13 0 -4 14 -1 30 8 17 9 30 20 30 26 0 6 4 8 9 4 5 -3 17 3 27 12 10 10 18 16
18 15 1 -2 13 2 28 9 15 6 25 16 22 20 -3 5 2 6 10 3 9 -3 16 -1 16 6 0 6 4 9
9 6 5 -3 14 1 21 9 7 8 18 15 26 15 7 0 19 6 26 13 7 7 15 13 18 14 15 0 80
37 80 45 0 5 4 7 9 3 5 -3 15 1 23 8 7 7 15 14 18 14 19 1 50 16 50 24 0 6 5
7 10 4 6 -3 10 -1 10 4 0 6 3 10 8 9 16 -4 52 14 46 24 -4 6 -2 8 4 4 12 -7
62 13 62 26 0 4 3 7 8 6 11 -4 72 26 72 35 0 5 4 6 9 2 5 -3 17 3 27 12 10 10
18 16 18 14 1 -2 11 -1 24 3 12 4 20 12 17 17 -3 5 1 6 9 3 9 -3 16 -1 16 6 0
6 4 9 8 6 5 -3 39 10 76 29 37 18 70 34 74 35 21 3 82 35 82 43 0 4 4 6 9 3 5
-3 34 8 65 24 31 17 56 27 56 24 0 -4 9 1 20 11 11 10 20 15 20 11 0 -4 10 -1
23 6 12 7 25 11 30 10 4 -1 7 3 7 9 0 5 4 8 9 4 5 -3 12 -1 16 5 3 5 15 10 25
10 10 0 25 6 32 13 7 8 19 12 26 9 6 -2 12 1 12 7 0 6 3 10 8 9 8 -1 35 8 77
27 17 7 40 16 53 20 12 3 22 11 22 16 0 6 4 8 9 5 14 -9 42 5 34 17 -3 6 -1 7
6 3 7 -4 31 1 55 13 24 11 56 23 70 27 14 3 24 10 21 14 -3 4 1 7 8 7 22 -2
97 23 97 33 0 5 8 8 18 8 9 0 31 5 47 11 17 7 30 11 30 10 0 -1 11 4 25 11 14
8 28 13 33 12 4 -1 7 3 7 8 0 5 3 9 8 9 4 -1 9 -1 12 1 3 1 16 4 30 6 14 3 27
9 28 14 2 6 15 10 28 10 13 0 24 4 24 8 0 4 8 8 18 9 9 1 39 11 65 22 27 12
55 21 63 21 8 0 14 4 14 8 0 4 11 9 25 10 14 1 40 9 57 18 17 9 42 18 56 20
15 3 32 10 39 16 7 6 13 7 13 3 0 -4 7 -2 15 5 8 7 15 9 15 5 0 -4 6 -3 13 3
6 5 27 13 45 17 19 4 30 11 26 17 -4 7 -2 8 4 4 16 -10 113 24 105 37 -3 6 -1
7 6 3 7 -4 20 -4 29 0 9 4 20 8 25 9 4 2 9 4 12 5 5 3 6 3 50 15 17 4 35 11
40 16 6 4 15 7 20 8 20 0 100 24 110 32 5 5 19 9 30 9 12 0 25 3 29 8 4 4 11
7 14 7 19 1 132 40 132 45 0 10 -29 8 -53 -5z m-2317 -6739 c14 -2 57 -11 95
-20 39 -10 97 -24 129 -31 32 -8 62 -12 67 -10 4 3 9 1 11 -4 1 -6 21 -11 43
-13 22 -2 42 -6 45 -9 6 -7 81 -21 123 -23 15 -1 27 -5 27 -9 0 -4 6 -7 13 -6
6 1 23 -1 37 -5 14 -4 36 -8 50 -10 14 -1 33 -6 43 -10 9 -5 24 -6 32 -2 8 3
15 1 15 -4 0 -5 8 -9 18 -9 9 0 42 -5 72 -12 30 -6 67 -12 83 -13 15 0 27 -4
27 -8 0 -4 8 -7 18 -8 82 -4 98 -6 103 -13 3 -5 26 -10 50 -12 24 -2 45 -5 47
-6 1 -1 10 -2 20 -4 9 -1 24 -4 32 -8 14 -5 112 -23 175 -32 32 -4 51 -8 160
-30 39 -7 97 -17 130 -21 33 -3 69 -8 80 -11 63 -13 129 -22 136 -18 4 3 11 0
14 -6 4 -5 24 -9 44 -8 20 2 43 -1 50 -5 8 -5 35 -10 62 -11 26 -2 51 -5 56
-8 12 -7 61 -16 127 -22 32 -3 63 -8 68 -11 12 -8 3 -36 -38 -115 -18 -37 -30
-70 -26 -74 4 -5 2 -6 -3 -2 -6 3 -22 -15 -35 -41 -14 -26 -27 -49 -30 -52
-12 -10 -70 -99 -70 -107 0 -4 -9 -14 -21 -21 -12 -7 -19 -16 -16 -18 12 -13
-202 -204 -280 -249 -18 -10 -29 -23 -26 -29 3 -6 3 -8 -2 -4 -4 4 -31 -5 -59
-19 -269 -137 -678 -144 -954 -17 -62 28 -101 52 -229 139 -25 17 -160 154
-156 159 2 2 -7 13 -21 24 -15 11 -26 24 -26 28 0 9 -53 81 -84 117 -9 9 -14
17 -11 17 5 0 -54 111 -64 120 -4 3 -7 10 -8 16 -1 6 -20 49 -42 95 -23 46
-41 88 -41 92 0 5 -6 23 -14 40 -23 53 -34 87 -66 201 -33 120 -36 148 -17
141 6 -2 23 -6 37 -9z m19240 -37 c41 -12 82 -22 90 -23 8 -1 23 -6 32 -10 9
-4 22 -9 30 -10 7 -2 20 -5 28 -9 8 -3 58 -20 110 -37 52 -18 107 -39 122 -46
15 -8 30 -14 33 -15 13 0 165 -69 180 -82 6 -4 36 -25 69 -46 127 -83 210
-187 241 -306 30 -118 10 -215 -62 -295 -44 -49 -131 -112 -168 -122 -11 -4
-50 -17 -86 -31 -37 -13 -84 -28 -105 -32 -22 -5 -41 -9 -44 -10 -3 -1 -30 -5
-60 -10 -30 -5 -57 -9 -60 -10 -3 -1 -45 -5 -95 -9 -49 -5 -99 -10 -110 -12
-45 -9 -486 -5 -565 5 -47 6 -102 13 -123 16 -21 3 -72 12 -115 21 -42 9 -84
17 -92 19 -19 4 -147 39 -230 63 -36 11 -114 39 -175 62 -60 23 -118 43 -127
43 -10 1 -18 4 -18 8 0 4 -15 12 -32 19 -41 15 -391 183 -398 191 -5 5 -138
81 -155 88 -5 2 -25 15 -42 29 -18 13 -33 21 -33 18 0 -4 -10 3 -22 14 -13 12
-45 35 -73 53 -27 17 -52 34 -55 37 -11 13 -88 70 -94 70 -3 0 -20 14 -38 30
-17 17 -36 30 -41 30 -6 0 -7 3 -3 7 3 4 34 8 68 10 35 2 65 7 68 11 3 4 19 7
35 8 17 0 53 4 80 8 28 4 68 9 90 12 22 2 117 16 210 30 94 13 193 27 220 30
28 3 57 8 65 11 8 3 38 7 65 9 28 3 75 9 105 16 59 12 101 17 138 18 13 0 21
3 19 8 -3 4 9 7 26 8 70 3 107 8 107 15 0 4 13 5 29 3 16 -3 32 0 36 6 3 6 10
8 14 6 4 -3 34 -1 67 4 117 18 129 20 159 26 17 3 53 8 80 11 28 3 57 9 65 12
8 4 35 9 60 10 25 2 48 5 52 7 4 2 26 7 50 10 24 3 50 8 58 11 8 3 37 7 64 10
27 3 59 8 70 12 23 9 80 0 186 -30z m-10510 -820 c0 -4 26 -5 58 -3 31 3 297
5 590 7 l532 2 0 -137 c0 -76 -3 -138 -7 -138 -5 -1 -28 -5 -53 -10 -95 -20
-194 -25 -460 -24 -269 1 -347 8 -535 48 -46 10 -216 66 -257 85 -112 51 -168
80 -221 114 -31 20 -62 37 -67 37 -6 0 -10 4 -10 9 0 6 17 11 38 13 70 6 392
3 392 -3z"/>
<path d="M5390 16098 c-3 -3 -81 -8 -174 -12 -93 -3 -171 -8 -175 -10 -3 -3
-42 -7 -86 -11 -44 -3 -93 -8 -110 -10 -16 -3 -42 -7 -56 -9 -15 -2 -52 -7
-83 -11 -31 -4 -56 -11 -56 -16 0 -5 -6 -6 -14 -3 -22 9 -365 -66 -496 -108
-36 -11 -54 -16 -68 -19 -26 -5 -269 -93 -277 -100 -5 -5 -17 -9 -27 -9 -10 0
-18 -4 -18 -8 0 -4 -8 -8 -18 -9 -24 -2 -276 -122 -280 -134 -2 -5 -7 -7 -12
-4 -5 3 -14 0 -22 -7 -7 -7 -19 -14 -25 -15 -18 -4 -117 -64 -125 -77 -4 -6
-8 -7 -8 -3 0 8 -67 -28 -80 -43 -3 -3 -22 -14 -43 -25 -20 -11 -48 -29 -61
-41 -12 -12 -36 -29 -52 -37 -16 -8 -39 -25 -51 -36 -12 -12 -26 -21 -30 -21
-5 0 -23 -13 -41 -30 -18 -16 -37 -30 -42 -30 -5 0 -18 -12 -29 -26 -12 -15
-21 -23 -21 -18 0 5 -4 4 -8 -1 -4 -6 -42 -39 -84 -74 -42 -36 -75 -68 -72
-73 3 -5 0 -7 -8 -6 -7 2 -12 -3 -10 -10 1 -6 -2 -11 -7 -10 -14 5 -223 -211
-296 -306 -11 -14 -30 -38 -43 -52 -13 -15 -35 -45 -50 -68 -15 -22 -33 -47
-40 -54 -7 -8 -10 -18 -6 -23 3 -5 2 -9 -3 -8 -4 1 -12 1 -16 0 -9 -1 74 -115
102 -141 9 -8 31 -34 49 -58 20 -24 39 -39 45 -35 7 3 9 2 4 -2 -7 -8 82 -100
156 -160 20 -16 58 -49 84 -72 27 -24 53 -43 59 -43 7 0 15 -7 18 -16 3 -8 10
-12 16 -9 5 3 10 2 10 -4 0 -12 91 -77 103 -73 4 1 7 -3 7 -8 0 -6 7 -10 15
-10 8 0 15 -4 15 -8 0 -11 131 -95 147 -95 7 0 10 -3 8 -7 -2 -3 17 -17 43
-31 26 -13 52 -29 59 -36 7 -6 23 -15 35 -19 12 -4 28 -13 36 -20 7 -8 18 -12
23 -9 5 4 9 2 9 -3 0 -9 36 -29 54 -30 5 0 12 -4 15 -9 9 -14 231 -124 231
-116 0 5 4 3 8 -3 8 -13 92 -57 92 -48 0 3 7 -2 16 -10 8 -9 21 -16 27 -16 7
0 38 -14 71 -30 32 -16 62 -27 67 -24 5 3 9 1 9 -5 0 -5 21 -17 48 -27 26 -10
52 -20 57 -24 6 -4 37 -17 70 -29 82 -31 96 -37 125 -49 61 -25 62 -25 59 21
-1 23 1 67 4 97 4 30 9 89 12 130 2 41 9 110 15 153 6 42 8 82 5 87 -3 6 -2
10 3 10 5 0 13 26 17 58 3 31 15 91 26 133 10 42 20 85 22 95 2 10 16 59 31
107 15 48 24 92 21 97 -3 6 -2 10 3 10 5 0 21 33 37 73 32 84 146 320 158 325
4 2 7 7 7 12 0 8 79 131 90 140 3 3 17 21 30 40 30 43 68 87 98 113 12 12 22
27 22 34 0 7 6 13 14 13 8 0 27 15 43 33 16 19 50 48 75 65 26 18 53 38 60 44
20 19 67 46 111 64 20 9 37 19 37 23 0 4 6 8 13 9 6 0 45 12 85 27 40 14 90
28 110 31 20 3 55 10 77 15 22 4 92 9 155 9 102 0 162 -8 315 -43 6 -2 15 -5
20 -8 6 -4 27 -12 48 -18 51 -17 199 -98 245 -136 110 -88 213 -191 259 -257
14 -21 30 -38 34 -38 5 0 9 -5 9 -12 0 -6 11 -25 23 -42 39 -51 156 -254 176
-304 11 -26 39 -97 64 -159 24 -61 47 -127 51 -147 4 -20 10 -36 14 -36 4 0 8
-10 8 -22 1 -13 12 -63 24 -113 12 -49 23 -99 26 -110 11 -56 14 -72 19 -100
2 -16 7 -55 11 -85 3 -30 9 -57 13 -60 3 -3 6 -30 7 -60 0 -30 4 -102 8 -159
16 -201 10 -576 -13 -849 -4 -46 -4 -85 -1 -87 7 -4 128 -30 190 -40 19 -3 69
-13 110 -21 73 -14 154 -29 215 -39 17 -3 66 -12 110 -20 44 -8 98 -16 119
-20 21 -3 48 -8 60 -10 12 -3 37 -7 56 -9 19 -2 46 -7 60 -10 14 -3 39 -7 55
-10 17 -2 73 -11 125 -19 52 -9 113 -18 135 -21 22 -3 67 -9 100 -15 83 -13
399 -58 462 -65 28 -3 57 -8 65 -10 7 -3 38 -7 68 -10 30 -3 109 -12 175 -21
66 -8 140 -17 165 -20 25 -3 57 -8 71 -11 25 -5 28 -2 40 48 7 29 13 60 14 68
0 9 4 20 7 25 3 6 9 30 13 55 4 25 9 54 11 65 46 235 61 562 38 825 -3 36 -7
88 -10 116 -2 28 -11 86 -19 130 -8 43 -16 86 -16 94 -3 45 -62 273 -86 330
-3 8 -7 21 -9 29 -19 96 -220 519 -243 513 -7 -1 -10 2 -6 8 7 11 -24 70 -37
70 -4 0 -8 7 -8 15 0 8 -4 15 -10 15 -5 0 -10 6 -10 14 0 7 -11 25 -24 39 -13
14 -22 27 -20 30 2 2 -13 21 -34 43 -20 21 -36 41 -35 44 2 6 -37 56 -96 124
-52 61 -306 316 -314 316 -3 0 -19 12 -35 28 -55 51 -105 92 -162 132 -19 14
-44 32 -55 42 -49 41 -284 193 -390 250 -11 6 -44 24 -73 40 -28 16 -56 27
-61 23 -6 -3 -14 2 -18 10 -9 15 -201 105 -323 151 -205 77 -526 173 -630 188
-19 3 -66 12 -103 20 -38 9 -85 17 -105 20 -20 3 -80 12 -132 20 -163 26 -415
45 -665 52 -132 4 -242 4 -245 2z"/>
<path d="M13240 16094 c-87 -4 -346 -23 -405 -30 -46 -5 -114 -13 -165 -20
-42 -5 -140 -20 -195 -30 -22 -4 -49 -9 -60 -11 -113 -19 -393 -87 -439 -105
-17 -7 -37 -13 -45 -13 -31 -3 -250 -80 -416 -147 -44 -17 -233 -105 -275
-127 -8 -4 -55 -29 -105 -55 -49 -26 -95 -53 -100 -59 -6 -7 -17 -13 -25 -15
-8 -2 -47 -26 -88 -53 -41 -27 -76 -49 -79 -49 -9 0 -148 -103 -151 -112 -2
-4 -8 -8 -13 -8 -6 0 -15 -5 -22 -10 -7 -6 -51 -41 -99 -79 -119 -95 -154
-126 -297 -271 -162 -164 -176 -179 -176 -187 0 -5 -11 -20 -25 -34 -64 -66
-142 -178 -134 -192 4 -6 4 -9 -1 -5 -11 10 -56 -52 -48 -66 3 -6 3 -8 -2 -4
-14 13 -103 -143 -184 -320 -40 -88 -106 -263 -116 -307 -1 -5 -5 -17 -8 -25
-13 -30 -58 -228 -72 -315 -3 -16 -7 -41 -10 -55 -24 -133 -34 -305 -30 -515
4 -212 19 -361 55 -535 28 -133 30 -141 40 -175 5 -16 13 -43 18 -59 4 -16 15
-33 23 -37 8 -4 115 -17 239 -28 124 -12 263 -26 310 -31 47 -5 119 -12 160
-15 41 -3 98 -8 125 -10 28 -3 79 -7 115 -10 36 -3 119 -10 185 -15 125 -11
468 -36 615 -45 47 -3 112 -8 145 -10 62 -5 145 -10 325 -20 58 -3 139 -8 181
-11 75 -5 76 -4 74 18 -1 13 -3 23 -5 23 -1 0 -3 9 -5 20 -2 11 -13 63 -25
115 -33 146 -38 172 -65 394 -7 61 -13 148 -16 241 -1 39 -4 73 -6 78 -6 10
-5 239 1 297 3 25 8 106 11 180 3 74 7 149 10 165 24 171 29 215 31 245 1 19
4 42 7 50 5 14 73 283 82 325 3 11 9 29 14 40 14 28 82 198 84 210 1 5 6 14
10 20 14 17 95 165 92 165 -2 0 7 12 20 26 14 15 25 31 25 35 0 4 16 25 35 46
19 21 33 44 30 51 -3 7 -1 11 3 8 5 -3 38 25 74 62 73 74 104 100 184 153 30
20 50 39 46 43 -4 4 -2 6 3 4 6 -1 57 20 115 48 58 28 130 59 160 69 30 10 61
22 68 28 6 5 12 7 12 3 0 -3 12 -1 26 5 15 5 43 12 63 15 20 3 50 9 66 14 28
8 115 19 305 38 133 13 445 -11 595 -44 17 -4 37 -8 45 -9 43 -6 218 -57 318
-94 45 -16 82 -27 82 -23 0 4 4 2 8 -4 4 -7 54 -33 112 -60 58 -26 117 -56
131 -66 15 -9 37 -22 50 -28 13 -6 56 -30 94 -55 39 -24 81 -50 95 -57 14 -7
27 -15 30 -18 17 -18 121 -90 130 -90 5 0 10 -3 10 -7 0 -5 17 -19 37 -33 20
-14 48 -35 61 -47 26 -24 48 -31 36 -11 -4 7 -3 8 5 4 12 -8 27 5 135 108 28
27 51 47 51 45 0 -2 14 9 30 23 17 15 57 50 90 79 33 28 59 55 57 60 -1 5 2 8
7 7 5 -2 35 20 67 49 33 28 79 69 104 90 24 21 62 55 84 76 22 21 48 43 58 48
11 6 16 15 12 22 -4 7 -4 9 1 5 11 -11 36 12 28 25 -3 5 -1 7 4 4 6 -4 37 17
69 45 33 29 67 59 76 67 19 16 8 41 -18 41 -8 0 -14 4 -14 8 0 8 -152 112
-164 112 -4 0 -16 9 -28 20 -12 11 -28 20 -35 20 -7 0 -13 5 -13 10 0 6 -6 10
-14 10 -7 0 -19 7 -26 15 -7 8 -16 13 -20 10 -5 -3 -10 -1 -12 4 -1 5 -9 11
-17 13 -8 2 -23 9 -32 17 -32 26 -193 110 -201 105 -5 -3 -8 -1 -8 4 0 10 -60
38 -72 34 -5 -1 -8 2 -8 7 0 5 -10 13 -22 17 -13 3 -51 20 -86 36 -78 36 -231
98 -252 102 -8 1 -31 9 -51 18 -57 25 -336 110 -399 122 -14 3 -50 11 -80 20
-79 21 -317 66 -430 80 -71 10 -299 34 -369 40 -86 7 -527 14 -621 10z"/>
<path d="M23316 16083 c-181 -7 -332 -16 -335 -20 -3 -5 -35 -8 -71 -8 -60 -1
-164 -11 -200 -20 -8 -2 -42 -7 -75 -11 -32 -3 -111 -17 -175 -30 -63 -13
-126 -27 -140 -29 -130 -27 -295 -75 -430 -125 -47 -17 -95 -34 -107 -37 -13
-3 -23 -10 -23 -16 0 -6 -3 -8 -6 -5 -7 8 -93 -29 -116 -50 -10 -8 -18 -12
-18 -8 0 4 -10 1 -22 -6 -13 -6 -29 -13 -36 -14 -8 -1 -21 -9 -30 -17 -10 -7
-37 -23 -62 -35 -25 -12 -67 -35 -95 -52 -27 -17 -60 -36 -72 -42 -13 -6 -23
-15 -23 -20 0 -4 -5 -8 -10 -8 -43 0 -388 -290 -373 -313 3 -6 1 -7 -4 -4 -10
6 -46 -25 -41 -34 2 -2 1 -3 -1 -2 -2 2 -13 -7 -23 -20 -11 -12 -29 -33 -41
-47 -44 -51 -127 -173 -127 -186 0 -8 -4 -14 -8 -14 -8 0 -48 -82 -43 -89 2
-2 -3 -7 -11 -12 -7 -5 -13 -12 -13 -16 -1 -4 -9 -23 -19 -42 -51 -95 -109
-301 -137 -481 -28 -181 -12 -569 28 -670 3 -8 8 -24 10 -35 14 -77 142 -359
183 -403 11 -12 20 -25 20 -29 0 -4 13 -22 28 -40 15 -18 45 -53 67 -79 82
-98 207 -214 230 -214 8 0 14 -4 12 -9 -3 -13 64 -62 74 -55 5 3 9 -1 9 -8 0
-13 104 -82 115 -76 4 1 11 -5 16 -14 6 -10 14 -18 19 -18 4 0 44 -21 87 -46
86 -52 201 -107 221 -107 6 0 12 -4 12 -8 0 -7 103 -52 250 -108 47 -18 94
-37 105 -41 11 -4 36 -13 55 -20 19 -7 44 -16 55 -21 89 -37 105 -38 266 -18
85 11 177 22 204 25 28 2 60 7 72 9 12 3 46 8 75 10 29 3 100 12 158 20 58 8
128 17 155 20 28 3 59 8 71 10 11 2 45 7 75 10 30 3 63 8 75 10 11 3 45 7 75
10 30 4 61 9 69 12 8 2 38 7 65 9 28 2 59 6 70 8 11 3 43 8 70 11 28 4 95 13
150 22 55 8 129 19 165 24 36 5 74 11 85 13 11 2 76 12 145 22 69 10 127 20
130 23 3 3 19 6 35 7 42 1 82 7 510 79 365 62 521 89 575 100 14 3 50 9 80 14
110 19 278 50 435 81 88 17 174 33 190 36 17 3 37 7 45 10 8 3 34 8 58 11 23
3 63 10 88 17 l45 11 -37 43 c-20 24 -38 41 -40 39 -2 -2 -28 19 -57 47 -29
28 -67 62 -85 76 -17 14 -41 32 -51 40 -11 8 -29 22 -41 30 -12 8 -28 20 -34
25 -28 27 -74 54 -80 48 -3 -3 -6 -1 -6 5 0 6 -11 17 -24 24 -13 7 -50 29 -82
48 -32 19 -62 34 -66 32 -5 -1 -8 2 -8 7 0 9 -60 37 -72 33 -5 -1 -8 3 -8 9 0
5 -35 26 -77 45 -43 20 -94 43 -113 52 -19 9 -37 17 -40 18 -3 0 -31 13 -63
28 -32 14 -63 23 -69 20 -6 -4 -8 -3 -5 3 6 9 -144 70 -159 64 -4 -2 -10 1
-13 6 -8 13 -212 84 -222 78 -4 -3 -9 -1 -11 5 -1 5 -12 11 -23 13 -11 2 -27
7 -35 10 -37 14 -234 76 -305 96 -22 6 -69 20 -105 31 -36 10 -76 21 -90 24
-14 3 -59 14 -100 25 -83 23 -331 87 -370 95 -14 3 -59 15 -100 25 -181 48
-244 63 -386 96 -10 2 -62 16 -114 31 -52 14 -102 27 -110 29 -118 26 -416
154 -466 200 -11 11 -40 37 -62 58 -23 20 -39 37 -36 37 3 0 -3 15 -14 33 -41
68 -55 157 -37 232 14 56 59 136 97 175 21 21 38 36 38 33 0 -2 12 4 28 15
174 121 466 176 937 177 112 0 218 -6 270 -16 22 -4 60 -10 85 -12 25 -3 68
-10 96 -17 28 -6 62 -12 75 -14 13 -2 31 -6 39 -9 8 -3 47 -12 85 -22 39 -9
77 -18 85 -20 22 -5 192 -59 285 -90 44 -14 99 -35 122 -46 24 -10 47 -19 51
-19 5 0 36 -13 70 -30 34 -16 67 -30 73 -30 5 0 21 -7 34 -16 14 -9 25 -12 25
-8 0 5 4 4 8 -1 6 -10 38 -27 171 -97 25 -13 54 -31 65 -40 11 -10 29 -21 40
-24 11 -4 31 -17 45 -30 14 -13 31 -24 38 -24 6 0 13 -3 15 -7 2 -5 31 -30 65
-56 l63 -48 55 42 c30 23 55 45 55 50 0 5 7 9 15 9 9 0 18 7 21 15 4 8 12 15
20 15 8 0 19 9 26 20 7 11 17 20 23 20 6 0 21 10 35 23 14 12 51 41 83 65 33
25 55 48 51 54 -4 7 -2 8 5 4 15 -10 43 13 34 27 -3 5 -1 7 5 3 5 -3 25 6 44
21 18 16 39 32 46 38 7 5 21 17 31 26 10 8 25 19 35 22 10 4 14 12 10 18 -4 7
-3 9 3 6 5 -3 50 27 100 66 82 65 106 84 168 131 15 12 16 15 5 16 -8 0 -21 9
-28 20 -7 12 -17 18 -21 15 -5 -2 -11 1 -14 9 -7 19 -316 247 -378 280 -40 21
-73 40 -89 52 -35 27 -167 93 -173 87 -4 -3 -7 -1 -7 5 0 7 -9 12 -19 12 -11
0 -21 4 -23 8 -4 10 -148 84 -148 77 0 -3 -11 2 -24 11 -14 8 -27 15 -31 15
-3 -1 -22 6 -43 15 -20 9 -77 31 -127 49 -49 18 -97 35 -105 38 -74 28 -411
119 -428 115 -4 0 -14 1 -22 4 -40 15 -300 60 -425 73 -33 3 -67 8 -75 10 -8
2 -62 6 -119 10 -57 3 -107 7 -110 10 -4 2 -54 5 -111 6 -58 1 -116 5 -130 8
-14 4 -173 1 -354 -6z"/>
<path d="M17162 13869 l-1 -2030 32 7 c18 4 52 7 77 6 41 -3 368 10 600 23 52
3 219 12 370 20 360 20 443 24 515 30 33 2 98 7 145 10 47 3 181 12 299 20
118 8 220 15 227 15 10 0 12 387 12 1965 l0 1965 -1138 0 -1138 0 0 -2031z"/>
<path d="M13230 12985 l1 -515 509 0 510 0 0 -337 0 -336 973 6 c534 4 984 10
1000 13 l27 6 0 839 0 839 -1510 0 -1510 0 0 -515z"/>
<path d="M28345 13043 c-29 -7 -43 -23 -15 -18 13 2 28 9 34 15 5 5 8 9 6 9
-3 -1 -14 -3 -25 -6z"/>
</g>
</svg>
